<?xml version="1.0" encoding="UTF-8" standalone="no"?>
<!-- Created with Inkscape (http://www.inkscape.org/) -->

<svg
   xmlns:dc="http://purl.org/dc/elements/1.1/"
   xmlns:cc="http://creativecommons.org/ns#"
   xmlns:rdf="http://www.w3.org/1999/02/22-rdf-syntax-ns#"
   xmlns:svg="http://www.w3.org/2000/svg"
   xmlns="http://www.w3.org/2000/svg"
   xmlns:sodipodi="http://sodipodi.sourceforge.net/DTD/sodipodi-0.dtd"
   xmlns:inkscape="http://www.inkscape.org/namespaces/inkscape"
   width="32"
   height="32"
   viewBox="0 0 32 31.999998"
   id="svg2"
   version="1.1"
   inkscape:version="0.91 r13725"
   sodipodi:docname="logo.svg"
   inkscape:export-filename="D:\Pictures\Art\Vector\Logos\Miner Farm\logo-48.png"
   inkscape:export-xdpi="135"
   inkscape:export-ydpi="135">
  <defs
     id="defs4" />
  <sodipodi:namedview
     id="base"
     pagecolor="#ffffff"
     bordercolor="#666666"
     borderopacity="1.0"
     inkscape:pageopacity="0.0"
     inkscape:pageshadow="2"
     inkscape:zoom="16"
     inkscape:cx="14.141216"
     inkscape:cy="11.323152"
     inkscape:document-units="px"
     inkscape:current-layer="layer1"
     showgrid="false"
     units="px"
     inkscape:window-width="1920"
     inkscape:window-height="1017"
     inkscape:window-x="-8"
     inkscape:window-y="-8"
     inkscape:window-maximized="1">
    <inkscape:grid
       type="xygrid"
       id="grid4684"
       spacingx="0.5"
       spacingy="0.49999997"
       empspacing="2" />
  </sodipodi:namedview>
  <metadata
     id="metadata7">
    <rdf:RDF>
      <cc:Work
         rdf:about="">
        <dc:format>image/svg+xml</dc:format>
        <dc:type
           rdf:resource="http://purl.org/dc/dcmitype/StillImage" />
        <dc:title />
      </cc:Work>
    </rdf:RDF>
  </metadata>
  <g
     inkscape:label="Layer 1"
     inkscape:groupmode="layer"
     id="layer1"
     transform="translate(0,-1020.3623)">
    <path
       style="fill:#ffffff;fill-opacity:1;fill-rule:evenodd;stroke:#000000;stroke-width:2;stroke-linecap:butt;stroke-linejoin:miter;stroke-miterlimit:4;stroke-dasharray:none;stroke-opacity:1"
       d="m 1,1021.3623 0,30 30,0 0,-30 z"
       id="path4686"
       inkscape:connector-curvature="0"
       sodipodi:nodetypes="ccccc" />
    <g
       id="g4702"
       transform="matrix(1.5833333,0,0,1.5833333,-1.2499999,-597.50298)">
      <path
         sodipodi:nodetypes="ccccc"
         inkscape:connector-curvature="0"
         id="path4688"
         d="m 3,1024.3623 4,0 2,5.5 2,-5.5 4,0"
         style="fill:none;fill-rule:evenodd;stroke:#000000;stroke-width:2;stroke-linecap:butt;stroke-linejoin:miter;stroke-miterlimit:3;stroke-dasharray:none;stroke-opacity:1" />
      <path
         inkscape:connector-curvature="0"
         id="path4692"
         d="m 5,1024.3623 0,7"
         style="fill:none;fill-rule:evenodd;stroke:#000000;stroke-width:2;stroke-linecap:butt;stroke-linejoin:miter;stroke-miterlimit:4;stroke-dasharray:none;stroke-opacity:1" />
      <path
         style="fill:none;fill-rule:evenodd;stroke:#000000;stroke-width:2;stroke-linecap:butt;stroke-linejoin:miter;stroke-miterlimit:4;stroke-dasharray:none;stroke-opacity:1"
         d="m 13,1024.3623 0,7"
         id="path4694"
         inkscape:connector-curvature="0" />
      <path
         inkscape:connector-curvature="0"
         id="path4696"
         d="m 3,1030.3623 4,0"
         style="fill:none;fill-rule:evenodd;stroke:#000000;stroke-width:2;stroke-linecap:butt;stroke-linejoin:miter;stroke-miterlimit:4;stroke-dasharray:none;stroke-opacity:1" />
      <path
         inkscape:connector-curvature="0"
         id="path4698"
         d="m 11,1030.3623 4,0"
         style="fill:none;fill-rule:evenodd;stroke:#000000;stroke-width:2;stroke-linecap:butt;stroke-linejoin:miter;stroke-miterlimit:4;stroke-dasharray:none;stroke-opacity:1" />
      <rect
         y="1031.3623"
         x="8"
         height="1.5"
         width="2"
         id="rect4700"
         style="opacity:1;fill:#ffffff;fill-opacity:1;stroke:none;stroke-width:2;stroke-linecap:square;stroke-linejoin:miter;stroke-miterlimit:3;stroke-dasharray:none;stroke-opacity:1" />
    </g>
    <g
       id="g4716"
       transform="matrix(1.5625,0,0,1.5625,-6.6,-591.82881)">
      <path
         inkscape:connector-curvature="0"
         id="path4710"
         d="m 18,1050.3623 0,-8"
         style="fill:none;fill-rule:evenodd;stroke:#000000;stroke-width:2;stroke-linecap:butt;stroke-linejoin:miter;stroke-miterlimit:4;stroke-dasharray:none;stroke-opacity:1" />
      <path
         sodipodi:nodetypes="ccc"
         inkscape:connector-curvature="0"
         id="path4712"
         d="m 16,1043.3623 5.5,0 0,2"
         style="fill:none;fill-rule:evenodd;stroke:#000000;stroke-width:2;stroke-linecap:butt;stroke-linejoin:miter;stroke-miterlimit:4;stroke-dasharray:none;stroke-opacity:1" />
      <path
         inkscape:connector-curvature="0"
         id="path4714"
         d="m 18,1046.3623 3,0"
         style="fill:none;fill-rule:evenodd;stroke:#000000;stroke-width:1px;stroke-linecap:butt;stroke-linejoin:miter;stroke-opacity:1"
         sodipodi:nodetypes="cc" />
    </g>
    <g
       transform="matrix(0.00561194,0.00561194,-0.00561194,0.00561194,7.9767343,1034.9835)"
       id="g4160">
      <path
         style="fill:#000000"
         d="M 359.75076,1246.5625 C 367.07054,1134.3461 399.31265,1020.8276 372.8317,908.78491 394.82578,789.01838 315.92638,684.27787 297.52788,569.84788 286.01846,465.13282 182.24581,411.61736 149.09174,325.20202 162.38526,247.34021 146.87901,149.65173 49.00085,161.99491 -34.417005,111.72074 51.269997,22.734188 119.38082,72.248972 194.06173,28.318662 287.15154,-43.112225 344.63055,59.9644 c 61.81915,-10.488139 140.71581,-11.233536 87.87019,74.76213 54.41391,60.39824 168.89079,-3.65941 246.08738,23.46889 226.03,-21.02227 454.26698,-27.69724 677.65378,-72.647767 119.1244,-36.063285 250.5795,41.170697 245.3704,173.420487 15.3528,145.98241 -30.7084,294.64309 9.748,438.40852 -5.4707,115.44428 22.9482,229.0856 29.7114,343.21374 30.1389,59.3609 23.4548,203.9968 -62.6715,151.7886 -6.9992,-49.8148 5.6064,-181.6835 -31.1513,-174.5975 4.8672,68.0849 12.956,246.606 -92.1863,195.9415 -3.1744,-83.4757 45.7122,-164.5765 12.6763,-248.59397 -20.9108,-103.12053 -61.4383,-202.24733 -100.4949,-298.86047 -87.7213,-85.49619 -186.0651,40.3261 -262.0797,84.36996 -111.04766,51.81089 -237.45441,15.44209 -354.08413,9.4552 C 613.10399,744.98511 651.0335,901.408 626.00831,985.5439 c -52.69494,78.6591 33.09623,199.7689 -61.42523,243.6806 -85.61442,-16.5476 24.10838,-127.118 -24.8811,-185.2036 -47.16425,-71.07013 37.03328,-181.34384 -33.40784,-228.37483 -23.60097,98.55155 -44.69234,201.87343 -65.13852,302.72303 1.61618,52.4973 -1.05168,150.9082 -81.40486,128.1934 z M 1568.825,690.6875 c -4.0694,-116.6564 5.5196,-233.70689 -6.325,-350.08387 -4.9899,98.64621 -28.4821,196.82287 -25.3812,295.17401 2.3539,20.62037 6.7674,50.14742 31.7062,54.90986 z"
         id="path4140"
         inkscape:connector-curvature="0" />
      <path
         style="fill:#000000"
         d="m 1404.7279,761.98561 c 1.0966,-84.66158 -92.0408,-149.93208 -157.5102,-119.40058 44.3698,-84.21176 168.7087,-100.55015 167.2774,20.40333 3.5653,33.09472 1.3183,67.43997 -9.7672,98.99725 z"
         id="path4140-0"
         inkscape:connector-curvature="0" />
    </g>
    <g
       id="g4753"
       transform="translate(1.4999956,0)">
      <path
         inkscape:connector-curvature="0"
         id="path4749"
         d="m 4,1048.3623 10,-10"
         style="fill:none;fill-rule:evenodd;stroke:#000000;stroke-width:1px;stroke-linecap:butt;stroke-linejoin:miter;stroke-opacity:1" />
      <path
         inkscape:connector-curvature="0"
         id="path4751"
         d="m 9,1037.3623 c 0,0 3,0 4.5,1.5 1.5,1.5 1.5,4.5 1.5,4.5 0,0 -1,-2 -2.5,-3.5 -1.5,-1.5 -3.5,-2.5 -3.5,-2.5 z"
         style="fill:#000000;fill-opacity:1;fill-rule:evenodd;stroke:none;stroke-width:1px;stroke-linecap:butt;stroke-linejoin:miter;stroke-opacity:1" />
    </g>
  </g>
</svg>
